<svg width="14" height="14" viewBox="0 0 14 14" fill="none" xmlns="http://www.w3.org/2000/svg">
<path fill-rule="evenodd" clip-rule="evenodd" d="M1.47855 1.97855C1.17373 2.28338 1 2.66262 1 3H0C0 2.33738 0.326274 1.71662 0.771447 1.27145C1.21662 0.826274 1.83738 0.5 2.5 0.5C2.88394 0.5 3.20088 0.646325 3.45648 0.823279C3.69707 0.989838 3.91172 1.20456 4.0894 1.38229C4.09415 1.38704 4.09886 1.39176 4.10355 1.39645C4.29817 1.59106 4.45349 1.74428 4.61273 1.85453C4.76338 1.95882 4.88394 2 5 2C5.32719 2 5.58152 1.84473 5.97265 1.58397C5.98327 1.57689 5.99401 1.56972 6.00488 1.56246C6.36102 1.32462 6.8471 1 7.5 1C8.1529 1 8.63898 1.32462 8.99512 1.56246C9.00599 1.56972 9.01673 1.57689 9.02735 1.58397C9.41848 1.84473 9.67281 2 10 2C10.3821 2 10.5506 1.9157 10.7684 1.80677L10.7764 1.80279C11.0547 1.66364 11.3867 1.5 12 1.5C12.6133 1.5 12.9453 1.66364 13.2236 1.80279L13.2316 1.80677C13.4494 1.9157 13.6179 2 14 2V3C13.3867 3 13.0547 2.83636 12.7764 2.69721L12.7684 2.69323C12.5506 2.5843 12.3821 2.5 12 2.5C11.6179 2.5 11.4494 2.5843 11.2316 2.69323L11.2236 2.69721C10.9453 2.83636 10.6133 3 10 3C9.3471 3 8.86102 2.67538 8.50488 2.43753C8.49401 2.43028 8.48327 2.42311 8.47265 2.41603C8.08152 2.15527 7.82719 2 7.5 2C7.17281 2 6.91848 2.15527 6.52735 2.41603C6.51673 2.42311 6.50599 2.43028 6.49512 2.43754C6.13898 2.67538 5.6529 3 5 3C4.61606 3 4.29912 2.85368 4.04352 2.67672C3.80293 2.51016 3.58828 2.29544 3.4106 2.11771C3.40585 2.11296 3.40114 2.10824 3.39645 2.10355C3.20183 1.90894 3.04651 1.75572 2.88727 1.64547C2.73662 1.54118 2.61606 1.5 2.5 1.5C2.16262 1.5 1.78338 1.67373 1.47855 1.97855Z" fill="#FF4566"/>
<path fill-rule="evenodd" clip-rule="evenodd" d="M1 5H0V4H7H14V5H13V14H12V5H2V14H1V5Z" fill="#D5D5D6"/>
</svg>
